<svg width="1400" height="840" viewBox="0 0 1400 840" xmlns="http://www.w3.org/2000/svg" font-family="'Segoe UI', Arial, Helvetica, sans-serif">
  <defs>
    <marker id="arr-dark" viewBox="0 0 10 10" refX="9" refY="5" markerWidth="6" markerHeight="6" orient="auto-start-reverse">
      <path d="M 0 0 L 10 5 L 0 10 z" fill="#374151"/>
    </marker>
    <marker id="arr-green" viewBox="0 0 10 10" refX="9" refY="5" markerWidth="6" markerHeight="6" orient="auto-start-reverse">
      <path d="M 0 0 L 10 5 L 0 10 z" fill="#10B981"/>
    </marker>
    <marker id="arr-blue" viewBox="0 0 10 10" refX="9" refY="5" markerWidth="6" markerHeight="6" orient="auto-start-reverse">
      <path d="M 0 0 L 10 5 L 0 10 z" fill="#3B82F6"/>
    </marker>
    <marker id="arr-red" viewBox="0 0 10 10" refX="9" refY="5" markerWidth="6" markerHeight="6" orient="auto-start-reverse">
      <path d="M 0 0 L 10 5 L 0 10 z" fill="#DC2626"/>
    </marker>
    <marker id="arr-gray" viewBox="0 0 10 10" refX="9" refY="5" markerWidth="6" markerHeight="6" orient="auto-start-reverse">
      <path d="M 0 0 L 10 5 L 0 10 z" fill="#9CA3AF"/>
    </marker>
    <marker id="arr-purple" viewBox="0 0 10 10" refX="9" refY="5" markerWidth="6" markerHeight="6" orient="auto-start-reverse">
      <path d="M 0 0 L 10 5 L 0 10 z" fill="#7C3AED"/>
    </marker>
    <filter id="shadow" x="-8%" y="-8%" width="116%" height="116%">
      <feDropShadow dx="1" dy="2" stdDeviation="4" flood-color="rgba(0,0,0,0.13)"/>
    </filter>
    <filter id="shadow-sm" x="-5%" y="-5%" width="110%" height="110%">
      <feDropShadow dx="1" dy="1" stdDeviation="2" flood-color="rgba(0,0,0,0.10)"/>
    </filter>
  </defs>

  <!-- BACKGROUND -->
  <rect width="1400" height="840" fill="#EEF2FF"/>

  <!-- TITLE -->
  <text x="700" y="44" text-anchor="middle" font-size="27" font-weight="700" fill="#111827">SnapCart Distributed — Architecture</text>
  <text x="700" y="67" text-anchor="middle" font-size="13" fill="#6B7280">.NET Aspire orchestrated microservices e-commerce platform</text>

  <!-- ===================== CLIENT APPS ===================== -->
  <rect x="18" y="80" width="262" height="674" fill="rgba(219,234,254,0.28)" stroke="#3B82F6" stroke-width="2.5" stroke-dasharray="10,5" rx="14"/>
  <text x="149" y="104" text-anchor="middle" font-size="14" font-weight="700" fill="#1E40AF">Client Apps</text>

  <!-- WebApp card -->
  <rect x="32" y="258" width="234" height="278" fill="#FEFCE8" stroke="#EAB308" stroke-width="2.5" rx="12" filter="url(#shadow)"/>
  <!-- Browser chrome -->
  <rect x="46" y="272" width="206" height="148" fill="white" stroke="#CBD5E1" stroke-width="1" rx="7"/>
  <rect x="46" y="272" width="206" height="24" fill="#F1F5F9" rx="7"/>
  <circle cx="61"  cy="284" r="5" fill="#EF4444"/>
  <circle cx="76"  cy="284" r="5" fill="#F59E0B"/>
  <circle cx="91"  cy="284" r="5" fill="#22C55E"/>
  <rect x="103" y="278" width="138" height="13" fill="white" stroke="#E2E8F0" stroke-width="0.5" rx="3"/>
  <text x="172" y="288" text-anchor="middle" font-size="6.5" fill="#6B7280">snapcart.app</text>
  <!-- Nav stripe -->
  <rect x="52" y="301" width="194" height="14" fill="#3B82F6" rx="2"/>
  <text x="75"  y="312" font-size="7" fill="white" font-weight="700">SnapCart</text>
  <rect x="200" y="304" width="40" height="8" fill="#1D4ED8" rx="2"/>
  <text x="220" y="311" text-anchor="middle" font-size="6" fill="white">Cart</text>
  <!-- Product grid -->
  <rect x="52"  y="320" width="60" height="60" fill="#E0E7FF" rx="3"/>
  <rect x="54"  y="322" width="56" height="38" fill="#C7D2FE" rx="2"/>
  <rect x="54"  y="363" width="36" height="6"  fill="#818CF8" rx="1"/>
  <rect x="54"  y="372" width="24" height="5"  fill="#A5B4FC" rx="1"/>
  <rect x="118" y="320" width="60" height="60" fill="#D1FAE5" rx="3"/>
  <rect x="120" y="322" width="56" height="38" fill="#A7F3D0" rx="2"/>
  <rect x="120" y="363" width="36" height="6"  fill="#34D399" rx="1"/>
  <rect x="120" y="372" width="24" height="5"  fill="#6EE7B7" rx="1"/>
  <rect x="184" y="320" width="60" height="60" fill="#FEE2E2" rx="3"/>
  <rect x="186" y="322" width="56" height="38" fill="#FCA5A5" rx="2"/>
  <rect x="186" y="363" width="36" height="6"  fill="#F87171" rx="1"/>
  <rect x="186" y="372" width="24" height="5"  fill="#FCA5A5" rx="1"/>
  <text x="149" y="446" text-anchor="middle" font-size="17" font-weight="700" fill="#713F12">WebApp</text>
  <text x="149" y="465" text-anchor="middle" font-size="11" fill="#92400E">Blazor WebAssembly</text>
  <text x="149" y="483" text-anchor="middle" font-size="9"  fill="#9CA3AF" font-style="italic">planned</text>
  <text x="149" y="499" text-anchor="middle" font-size="9"  fill="#9CA3AF">:5173 / :7080</text>
  <text x="149" y="736" text-anchor="middle" font-size="22" font-weight="700" fill="#7C3AED">.NET</text>

  <!-- ===================== MICROSERVICES ===================== -->
  <rect x="295" y="80" width="582" height="674" fill="rgba(220,252,231,0.22)" stroke="#3B82F6" stroke-width="2.5" stroke-dasharray="10,5" rx="14"/>
  <text x="586" y="104" text-anchor="middle" font-size="14" font-weight="700" fill="#1E40AF">EShop Microservices</text>

  <!-- .NET Aspire logo top-right -->
  <g transform="translate(1302,60)">
    <polygon points="38,0 76,0 57,40" fill="#7C3AED"/>
    <polygon points="46,8  70,8  57,30" fill="#A78BFA" opacity="0.55"/>
    <text x="57" y="56" text-anchor="middle" font-size="11" font-weight="700" fill="#5B21B6">.NET Aspire</text>
  </g>

  <!-- CATALOG BOX -->
  <rect x="312" y="118" width="556" height="258" fill="#F0FDF4" stroke="#16A34A" stroke-width="2.5" rx="12" filter="url(#shadow)"/>
  <g transform="translate(842,142)">
    <polygon points="0,-26 22,-13 22,13 0,26 -22,13 -22,-13" fill="#4ADE80" stroke="#22C55E" stroke-width="1.5"/>
    <polygon points="22,-13 22,13 0,26 0,0"    fill="#15803D"/>
    <polygon points="0,-26 22,-13 0,0 -22,-13"  fill="#86EFAC"/>
    <text x="0" y="7" text-anchor="middle" font-size="9" font-weight="700" fill="white">.NET</text>
  </g>
  <text x="586" y="162" text-anchor="middle" font-size="20" font-weight="700" fill="#14532D">Catalog</text>
  <text x="586" y="183" text-anchor="middle" font-size="12" fill="#166534">FastEndpoints REST API · :7249 / :5018</text>
  <rect x="322"  y="196" width="113" height="22" fill="#16A34A" rx="11"/>
  <text x="378"  y="211" text-anchor="middle" font-size="9.5" fill="white" font-weight="700">GET /products</text>
  <rect x="444"  y="196" width="122" height="22" fill="#2563EB" rx="11"/>
  <text x="505"  y="211" text-anchor="middle" font-size="9.5" fill="white" font-weight="700">POST /products</text>
  <rect x="575"  y="196" width="130" height="22" fill="#D97706" rx="11"/>
  <text x="640"  y="211" text-anchor="middle" font-size="9.5" fill="white" font-weight="700">PUT /products/{id}</text>
  <rect x="714"  y="196" width="147" height="22" fill="#DC2626" rx="11"/>
  <text x="787"  y="211" text-anchor="middle" font-size="9.5" fill="white" font-weight="700">DELETE /products/{id}</text>
  <rect x="322" y="228" width="533" height="24" fill="rgba(255,255,255,0.72)" stroke="#86EFAC" stroke-width="1" stroke-dasharray="5,3" rx="6"/>
  <text x="588" y="244" text-anchor="middle" font-size="9.5" fill="#166534">ServiceDefaults: OpenTelemetry · Health Checks · Service Discovery · Resilience</text>
  <text x="586" y="276" text-anchor="middle" font-size="11" fill="#166534">EF Core · Npgsql · .NET 10 · EF Migrations</text>
  <text x="586" y="295" text-anchor="middle" font-size="11" fill="#166534">PostgreSQL (catalogdb) · pgAdmin · Data Volume</text>
  <text x="586" y="313" text-anchor="middle" font-size="9.5" fill="#9CA3AF">AddServiceDefaults · MapDefaultEndpoints · AllowAnonymous</text>
  <text x="586" y="330" text-anchor="middle" font-size="9.5" fill="#9CA3AF">WaitFor(catalogdb) · UseMigration · UseFastEndpoints</text>

  <!-- HTTP/gRPC arrow box (red border, like reference) -->
  <rect x="450" y="386" width="272" height="92" fill="white" stroke="#EF4444" stroke-width="3" rx="10" filter="url(#shadow)"/>
  <text x="488" y="445" text-anchor="middle" font-size="36" fill="#374151">↑</text>
  <ellipse cx="572" cy="415" rx="24" ry="14" fill="#BFDBFE" stroke="#3B82F6" stroke-width="1.5"/>
  <ellipse cx="555" cy="426" rx="17" ry="13" fill="#BFDBFE" stroke="#3B82F6" stroke-width="1.5"/>
  <ellipse cx="590" cy="426" rx="17" ry="13" fill="#BFDBFE" stroke="#3B82F6" stroke-width="1.5"/>
  <text x="572" y="433" text-anchor="middle" font-size="14" fill="#1D4ED8" font-weight="700">&#x21C4;</text>
  <rect x="614" y="408" width="36" height="9" fill="#374151" rx="2"/>
  <circle cx="645" cy="412" r="2.5" fill="#22C55E"/>
  <rect x="614" y="421" width="36" height="9" fill="#4B5563" rx="2"/>
  <circle cx="645" cy="425" r="2.5" fill="#22C55E"/>
  <rect x="614" y="434" width="36" height="9" fill="#6B7280" rx="2"/>
  <circle cx="645" cy="438" r="2.5" fill="#9CA3AF"/>
  <text x="572" y="466" text-anchor="middle" font-size="9" fill="#6B7280">HTTP / gRPC (planned)</text>

  <!-- CART BOX -->
  <rect x="312" y="488" width="556" height="258" fill="#F0FDF4" stroke="#16A34A" stroke-width="2.5" rx="12" filter="url(#shadow)"/>
  <g transform="translate(842,512)">
    <polygon points="0,-26 22,-13 22,13 0,26 -22,13 -22,-13" fill="#4ADE80" stroke="#22C55E" stroke-width="1.5"/>
    <polygon points="22,-13 22,13 0,26 0,0"    fill="#15803D"/>
    <polygon points="0,-26 22,-13 0,0 -22,-13"  fill="#86EFAC"/>
    <text x="0" y="7" text-anchor="middle" font-size="9" font-weight="700" fill="white">.NET</text>
  </g>
  <text x="586" y="532" text-anchor="middle" font-size="20" font-weight="700" fill="#14532D">Cart</text>
  <text x="586" y="553" text-anchor="middle" font-size="12" fill="#166534">FastEndpoints REST API · :7119 / :5256</text>
  <rect x="340"  y="566" width="145" height="22" fill="#16A34A" rx="11"/>
  <text x="412"  y="581" text-anchor="middle" font-size="9.5" fill="white" font-weight="700">GET /cart/{userName}</text>
  <rect x="496"  y="566" width="108" height="22" fill="#2563EB" rx="11"/>
  <text x="550"  y="581" text-anchor="middle" font-size="9.5" fill="white" font-weight="700">POST /cart</text>
  <rect x="616"  y="566" width="148" height="22" fill="#DC2626" rx="11"/>
  <text x="690"  y="581" text-anchor="middle" font-size="9.5" fill="white" font-weight="700">DELETE /cart/{userId}</text>
  <rect x="322" y="598" width="533" height="24" fill="rgba(255,255,255,0.72)" stroke="#86EFAC" stroke-width="1" stroke-dasharray="5,3" rx="6"/>
  <text x="588" y="614" text-anchor="middle" font-size="9.5" fill="#166534">ServiceDefaults: OpenTelemetry · Health Checks · Service Discovery · Resilience</text>
  <text x="586" y="646" text-anchor="middle" font-size="11" fill="#166534">StackExchange.Redis · .NET 10</text>
  <text x="586" y="665" text-anchor="middle" font-size="11" fill="#166534">Redis distributed cache (connectionName: cache) · RedisInsight</text>
  <text x="586" y="683" text-anchor="middle" font-size="9.5" fill="#9CA3AF">AddServiceDefaults · MapDefaultEndpoints · AllowAnonymous</text>
  <text x="586" y="700" text-anchor="middle" font-size="9.5" fill="#9CA3AF">WaitFor(cache) · AddRedisDistributedCache · UseFastEndpoints</text>

  <!-- ARROWS WebApp to services -->
  <path d="M 266 362 C 282 320 294 280 312 252" stroke="#374151" stroke-width="2" fill="none" marker-end="url(#arr-dark)"/>
  <path d="M 312 270 C 294 298 282 338 266 380" stroke="#374151" stroke-width="2" fill="none" marker-end="url(#arr-dark)"/>
  <text x="262" y="310" text-anchor="end" font-size="8.5" fill="#374151" font-weight="600">HTTP</text>
  <text x="262" y="321" text-anchor="end" font-size="8.5" fill="#374151" font-weight="600">REST</text>
  <path d="M 266 430 C 282 490 294 562 312 598" stroke="#374151" stroke-width="2" fill="none" marker-end="url(#arr-dark)"/>
  <path d="M 312 616 C 294 582 282 508 266 448" stroke="#374151" stroke-width="2" fill="none" marker-end="url(#arr-dark)"/>

  <!-- ===================== POSTGRESQL ===================== -->
  <g transform="translate(975,210)">
    <rect x="-50" y="-10" width="100" height="74" fill="#3B82F6"/>
    <ellipse cx="0" cy="64"  rx="50" ry="18" fill="#1D4ED8"/>
    <ellipse cx="0" cy="-10" rx="50" ry="18" fill="#60A5FA"/>
    <ellipse cx="0" cy="-10" rx="38" ry="12" fill="#93C5FD" opacity="0.55"/>
    <!-- Elephant -->
    <ellipse cx="0"   cy="12"  rx="22" ry="20" fill="white" opacity="0.90"/>
    <ellipse cx="-22" cy="4"   rx="10" ry="16" fill="white" opacity="0.65"/>
    <ellipse cx="22"  cy="4"   rx="10" ry="16" fill="white" opacity="0.65"/>
    <path d="M -7 26 Q -24 38 -18 56 Q -15 62 -9 62" stroke="white" stroke-width="5.5" fill="none" stroke-linecap="round" opacity="0.88"/>
    <circle cx="-8"  cy="2"  r="3" fill="#1E40AF"/>
    <circle cx="8"   cy="2"  r="3" fill="#1E40AF"/>
    <path d="M -6 20 Q -11 28 -9 34" stroke="#BFDBFE" stroke-width="2.5" fill="none" stroke-linecap="round"/>
    <path d="M  6 20 Q  11 28  9 34" stroke="#BFDBFE" stroke-width="2.5" fill="none" stroke-linecap="round"/>
  </g>
  <text x="975" y="306" text-anchor="middle" font-size="14" font-weight="700" fill="#1E40AF">PostgreSQL</text>
  <text x="975" y="323" text-anchor="middle" font-size="10" fill="#3B82F6">catalogdb · data volume</text>
  <!-- Catalog to PostgreSQL -->
  <line x1="868" y1="245" x2="925" y2="245" stroke="#10B981" stroke-width="2.5" marker-end="url(#arr-green)"/>
  <text x="896" y="239" text-anchor="middle" font-size="8" fill="#059669" font-weight="600">EF Core</text>

  <!-- ===================== pgAdmin ===================== -->
  <rect x="1068" y="148" width="128" height="54" fill="#EFF6FF" stroke="#3B82F6" stroke-width="1.5" rx="8" filter="url(#shadow-sm)"/>
  <rect x="1078" y="158" width="13" height="10" fill="#2563EB" rx="1.5"/>
  <rect x="1094" y="158" width="13" height="10" fill="#3B82F6" rx="1.5"/>
  <rect x="1078" y="171" width="13" height="10" fill="#60A5FA" rx="1.5"/>
  <rect x="1094" y="171" width="13" height="10" fill="#BFDBFE" rx="1.5"/>
  <text x="1148" y="168" font-size="12" font-weight="700" fill="#1D4ED8">pg</text>
  <text x="1148" y="184" font-size="12" font-weight="700" fill="#3B82F6">Admin</text>
  <path d="M 1068 175 C 1050 200 1035 212 1025 222" stroke="#60A5FA" stroke-width="1.5" fill="none" stroke-dasharray="5,3" marker-end="url(#arr-blue)"/>

  <!-- ===================== REDIS ===================== -->
  <g transform="translate(975,591)">
    <polygon points="0,-50 43,-25 43,25 0,50 -43,25 -43,-25" fill="#DC2626"/>
    <polygon points="0,-38 33,-19 33,19 0,38 -33,19 -33,-19" fill="#EF4444"/>
    <polygon points="0,-27 6.5,-9 25,-9 10.5,3.5 16,21 0,11 -16,21 -10.5,3.5 -25,-9 -6.5,-9" fill="#FCA5A5"/>
    <text x="0" y="8" text-anchor="middle" font-size="10" font-weight="700" fill="white">redis</text>
  </g>
  <text x="975" y="663" text-anchor="middle" font-size="14" font-weight="700" fill="#991B1B">Redis</text>
  <text x="975" y="679" text-anchor="middle" font-size="10" fill="#DC2626">distributed cache · RedisInsight</text>
  <!-- Cart to Redis -->
  <line x1="868" y1="612" x2="932" y2="597" stroke="#DC2626" stroke-width="2.5" marker-end="url(#arr-red)"/>
  <text x="900" y="600" text-anchor="middle" font-size="8" fill="#991B1B" font-weight="600">cache</text>

  <!-- ===================== KEYCLOAK ===================== -->
  <g transform="translate(1104,445)">
    <path d="M 0,-55 L 46,-28 L 46,14 Q 46,50 0,63 Q -46,50 -46,14 L -46,-28 Z" fill="#CBD5E1"/>
    <path d="M 0,-42 L 34,-20 L 34,14 Q 34,39 0,50 Q -34,39 -34,14 L -34,-20 Z" fill="#E2E8F0"/>
    <circle cx="0"   cy="-10" r="15" fill="#94A3B8" stroke="#64748B" stroke-width="2"/>
    <circle cx="0"   cy="-10" r="8"  fill="none"   stroke="white"   stroke-width="2.5"/>
    <rect x="-2.5" y="5"  width="5" height="24" fill="#94A3B8"/>
    <rect x="2.5"  y="12" width="11" height="5" fill="#94A3B8"/>
    <rect x="2.5"  y="21" width="9"  height="5" fill="#94A3B8"/>
  </g>
  <text x="1104" y="528" text-anchor="middle" font-size="13" font-weight="700" fill="#475569">KEYCLOAK</text>
  <text x="1104" y="544" text-anchor="middle" font-size="9"  fill="#9CA3AF" font-style="italic">OIDC auth · planned</text>
  <path d="M 868 330 Q 1000 400 1060 445" stroke="#CBD5E1" stroke-width="1.5" fill="none" stroke-dasharray="5,4" marker-end="url(#arr-gray)"/>
  <text x="960" y="380" text-anchor="middle" font-size="8" fill="#9CA3AF">auth</text>

  <!-- ===================== RABBITMQ ===================== -->
  <rect x="1202" y="248" width="162" height="322" fill="#FF8C00" rx="50" filter="url(#shadow)"/>
  <rect x="1214" y="262" width="138" height="296" fill="#E67E00" rx="42"/>
  <g transform="translate(1283,365)">
    <ellipse cx="-19" cy="-72" rx="11" ry="36" fill="#E67E00"/>
    <ellipse cx="19"  cy="-72" rx="11" ry="36" fill="#E67E00"/>
    <ellipse cx="-19" cy="-72" rx="5.5" ry="27" fill="#FFB347"/>
    <ellipse cx="19"  cy="-72" rx="5.5" ry="27" fill="#FFB347"/>
    <ellipse cx="0"   cy="-32" rx="30" ry="27" fill="#FF8C00"/>
    <circle  cx="-11" cy="-38" r="6"   fill="white"/>
    <circle  cx="11"  cy="-38" r="6"   fill="white"/>
    <circle  cx="-10" cy="-38" r="2.8" fill="#1a1a1a"/>
    <circle  cx="12"  cy="-38" r="2.8" fill="#1a1a1a"/>
    <ellipse cx="0" cy="-20" rx="5" ry="4" fill="#FFB6C1"/>
    <ellipse cx="0" cy="26"  rx="40" ry="48" fill="#FF8C00"/>
    <ellipse cx="-30" cy="44" rx="11" ry="7" fill="#E67E00"/>
    <ellipse cx="30"  cy="44" rx="11" ry="7" fill="#E67E00"/>
    <rect x="-24" y="62" width="48" height="22" fill="white" rx="5"/>
    <text x="0" y="78" text-anchor="middle" font-size="11" font-weight="700" fill="#FF8C00">RMQ</text>
    <text x="0" y="106" text-anchor="middle" font-size="11" font-weight="700" fill="white">RabbitMQ</text>
  </g>
  <text x="1283" y="594" text-anchor="middle" font-size="13" font-weight="700" fill="#92400E">RabbitMQ</text>
  <text x="1283" y="610" text-anchor="middle" font-size="9"  fill="#B45309" font-style="italic">message broker · planned</text>
  <path d="M 868 290 Q 1060 310 1202 370" stroke="#D1D5DB" stroke-width="1.5" fill="none" stroke-dasharray="6,4" marker-end="url(#arr-gray)"/>
  <text x="1032" y="298" text-anchor="middle" font-size="8" fill="#9CA3AF">events</text>
  <path d="M 868 650 Q 1060 628 1202 518" stroke="#D1D5DB" stroke-width="1.5" fill="none" stroke-dasharray="6,4" marker-end="url(#arr-gray)"/>

  <!-- Aspire orchestration arrow -->
  <path d="M 1302 116 Q 1100 118 868 142" stroke="#7C3AED" stroke-width="1.5" fill="none" stroke-dasharray="5,4" marker-end="url(#arr-purple)"/>
  <text x="1088" y="112" text-anchor="middle" font-size="8" fill="#7C3AED" font-weight="600">provisions &amp; runs</text>

  <!-- ===================== LEGEND ===================== -->
  <rect x="18" y="762" width="1364" height="62" fill="white" stroke="#E5E7EB" stroke-width="1" rx="10"/>
  <text x="55"  y="784" font-size="10.5" font-weight="700" fill="#374151">Legend:</text>
  <line x1="112" y1="786" x2="148" y2="786" stroke="#374151" stroke-width="2" marker-end="url(#arr-dark)"/>
  <text x="220" y="790" text-anchor="middle" font-size="10" fill="#374151">Sync REST call</text>
  <line x1="290" y1="786" x2="326" y2="786" stroke="#10B981" stroke-width="2.5" marker-end="url(#arr-green)"/>
  <text x="400" y="790" text-anchor="middle" font-size="10" fill="#374151">DB / cache connection</text>
  <line x1="468" y1="786" x2="504" y2="786" stroke="#7C3AED" stroke-width="1.5" stroke-dasharray="5,3" marker-end="url(#arr-purple)"/>
  <text x="582" y="790" text-anchor="middle" font-size="10" fill="#374151">Aspire orchestration</text>
  <line x1="648" y1="786" x2="684" y2="786" stroke="#D1D5DB" stroke-width="1.5" stroke-dasharray="5,3" marker-end="url(#arr-gray)"/>
  <text x="768" y="790" text-anchor="middle" font-size="10" fill="#374151">Planned (events / auth)</text>
  <rect x="842"  y="779" width="13" height="13" fill="#DCFCE7" stroke="#16A34A" stroke-width="1.5" rx="2"/>
  <text x="916" y="790" text-anchor="middle" font-size="10" fill="#374151">Implemented today</text>
  <rect x="986"  y="779" width="13" height="13" fill="#F1F5F9" stroke="#CBD5E1" stroke-width="1.5" stroke-dasharray="3,2" rx="2"/>
  <text x="1060" y="790" text-anchor="middle" font-size="10" fill="#374151">Planned (roadmap)</text>
  <text x="55" y="812" font-size="9" fill="#6B7280">AppHost registers: postgres (catalogdb) · cache (Redis) · catalog service · cart service  ·  Aspire injects ConnectionStrings:* at runtime  ·  Last updated: July 2026</text>
</svg>
