<?xml version="1.0" encoding="UTF-8" standalone="no"?>
<!DOCTYPE svg PUBLIC "-//W3C//DTD SVG 1.1//EN"
 "http://www.w3.org/Graphics/SVG/1.1/DTD/svg11.dtd">
<!-- Generated by graphviz version 14.1.5 (20260411.2331)
 -->
<!-- Title: SnapCartArchitecture Pages: 1 -->
<svg width="487pt" height="339pt"
 viewBox="0.00 0.00 487.00 339.00" xmlns="http://www.w3.org/2000/svg" xmlns:xlink="http://www.w3.org/1999/xlink">
<g id="graph0" class="graph" transform="scale(1 1) rotate(0) translate(4 335)">
<title>SnapCartArchitecture</title>
<polygon fill="white" stroke="none" points="-4,4 -4,-335 482.8,-335 482.8,4 -4,4"/>
<g id="clust1" class="cluster">
<title>cluster_client</title>
<polygon fill="#e8f4f8" stroke="black" stroke-dasharray="5,2" points="23.27,-109 23.27,-186 103.77,-186 103.77,-109 23.27,-109"/>
<text xml:space="preserve" text-anchor="middle" x="63.52" y="-168.7" font-family="Times,serif" font-size="14.00">Client Apps</text>
</g>
<g id="clust2" class="cluster">
<title>cluster_aspire</title>
<polygon fill="#f0e6ff" stroke="black" stroke-dasharray="5,2" points="14.27,-8 14.27,-101 112.77,-101 112.77,-8 14.27,-8"/>
<text xml:space="preserve" text-anchor="middle" x="63.52" y="-83.7" font-family="Times,serif" font-size="14.00">.NET Aspire</text>
<text xml:space="preserve" text-anchor="middle" x="63.52" y="-67.2" font-family="Times,serif" font-size="14.00">(Orchestration)</text>
</g>
<g id="clust3" class="cluster">
<title>cluster_services</title>
<polygon fill="#e8f5e9" stroke="black" stroke-dasharray="5,2" points="184.55,-82 184.55,-213 317.55,-213 317.55,-82 184.55,-82"/>
<text xml:space="preserve" text-anchor="middle" x="251.05" y="-195.7" font-family="Times,serif" font-size="14.00">EShop Microservices</text>
</g>
<g id="clust4" class="cluster">
<title>cluster_databases</title>
<polygon fill="#fff9e6" stroke="black" stroke-dasharray="5,2" points="369.67,-176 369.67,-323 463.67,-323 463.67,-176 369.67,-176"/>
<text xml:space="preserve" text-anchor="middle" x="416.67" y="-305.7" font-family="Times,serif" font-size="14.00">Data &amp; Cache</text>
</g>
<g id="clust5" class="cluster">
<title>cluster_infra</title>
<polygon fill="#ffe6e6" stroke="black" stroke-dasharray="5,2" points="361.55,-37 361.55,-168 470.8,-168 470.8,-37 361.55,-37"/>
<text xml:space="preserve" text-anchor="middle" x="416.17" y="-150.7" font-family="Times,serif" font-size="14.00">Infrastructure</text>
</g>
<g id="clust6" class="cluster">
<title>cluster_legend</title>
<polygon fill="#f5f5f5" stroke="black" stroke-dasharray="5,2" points="8,-208 8,-292 118.05,-292 118.05,-208 8,-208"/>
<text xml:space="preserve" text-anchor="middle" x="63.02" y="-274.7" font-family="Times,serif" font-size="14.00">Legend</text>
</g>
<!-- webapp -->
<g id="node1" class="node">
<title>webapp</title>
<path fill="#ffe680" stroke="black" d="M80.02,-153C80.02,-153 46.02,-153 46.02,-153 40.02,-153 34.02,-147 34.02,-141 34.02,-141 34.02,-129 34.02,-129 34.02,-123 40.02,-117 46.02,-117 46.02,-117 80.02,-117 80.02,-117 86.02,-117 92.02,-123 92.02,-129 92.02,-129 92.02,-141 92.02,-141 92.02,-147 86.02,-153 80.02,-153"/>
<text xml:space="preserve" text-anchor="middle" x="63.02" y="-138.05" font-family="Arial" font-size="11.00">WebApp</text>
<text xml:space="preserve" text-anchor="middle" x="63.02" y="-124.55" font-family="Arial" font-size="11.00">(Blazor)</text>
</g>
<!-- catalog -->
<g id="node3" class="node">
<title>catalog</title>
<path fill="#90ee90" stroke="black" d="M265.55,-180C265.55,-180 235.55,-180 235.55,-180 229.55,-180 223.55,-174 223.55,-168 223.55,-168 223.55,-156 223.55,-156 223.55,-150 229.55,-144 235.55,-144 235.55,-144 265.55,-144 265.55,-144 271.55,-144 277.55,-150 277.55,-156 277.55,-156 277.55,-168 277.55,-168 277.55,-174 271.55,-180 265.55,-180"/>
<text xml:space="preserve" text-anchor="middle" x="250.55" y="-165.05" font-family="Arial" font-size="11.00">Catalog</text>
<text xml:space="preserve" text-anchor="middle" x="250.55" y="-151.55" font-family="Arial" font-size="11.00">Service</text>
</g>
<!-- webapp&#45;&gt;catalog -->
<g id="edge1" class="edge">
<title>webapp&#45;&gt;catalog</title>
<path fill="none" stroke="black" stroke-width="2" d="M92.2,-139.1C123.75,-143.69 175.09,-151.16 210.5,-156.32"/>
<polygon fill="black" stroke="black" stroke-width="2" points="209.82,-159.75 220.22,-157.73 210.83,-152.83 209.82,-159.75"/>
<text xml:space="preserve" text-anchor="middle" x="151.3" y="-152.87" font-family="Times,serif" font-size="9.00">HTTP/gRPC</text>
</g>
<!-- basket -->
<g id="node4" class="node">
<title>basket</title>
<path fill="#90ee90" stroke="black" d="M265.55,-126C265.55,-126 235.55,-126 235.55,-126 229.55,-126 223.55,-120 223.55,-114 223.55,-114 223.55,-102 223.55,-102 223.55,-96 229.55,-90 235.55,-90 235.55,-90 265.55,-90 265.55,-90 271.55,-90 277.55,-96 277.55,-102 277.55,-102 277.55,-114 277.55,-114 277.55,-120 271.55,-126 265.55,-126"/>
<text xml:space="preserve" text-anchor="middle" x="250.55" y="-111.05" font-family="Arial" font-size="11.00">Basket</text>
<text xml:space="preserve" text-anchor="middle" x="250.55" y="-97.55" font-family="Arial" font-size="11.00">Service</text>
</g>
<!-- webapp&#45;&gt;basket -->
<g id="edge2" class="edge">
<title>webapp&#45;&gt;basket</title>
<path fill="none" stroke="black" stroke-width="2" d="M92.2,-130.9C123.75,-126.31 175.09,-118.84 210.5,-113.68"/>
<polygon fill="black" stroke="black" stroke-width="2" points="210.83,-117.17 220.22,-112.27 209.82,-110.25 210.83,-117.17"/>
<text xml:space="preserve" text-anchor="middle" x="151.3" y="-127.45" font-family="Times,serif" font-size="9.00">HTTP/gRPC</text>
</g>
<!-- apphost -->
<g id="node2" class="node">
<title>apphost</title>
<path fill="#d4bbff" stroke="black" d="M81.52,-52C81.52,-52 44.52,-52 44.52,-52 38.52,-52 32.52,-46 32.52,-40 32.52,-40 32.52,-28 32.52,-28 32.52,-22 38.52,-16 44.52,-16 44.52,-16 81.52,-16 81.52,-16 87.52,-16 93.52,-22 93.52,-28 93.52,-28 93.52,-40 93.52,-40 93.52,-46 87.52,-52 81.52,-52"/>
<text xml:space="preserve" text-anchor="middle" x="63.02" y="-37.05" font-family="Arial" font-size="11.00">App Host</text>
<text xml:space="preserve" text-anchor="middle" x="63.02" y="-23.55" font-family="Arial" font-size="11.00">(Aspire)</text>
</g>
<!-- apphost&#45;&gt;catalog -->
<g id="edge9" class="edge">
<title>apphost&#45;&gt;catalog</title>
<path fill="none" stroke="black" d="M93.87,-46.4C118.73,-58.14 153.38,-78.04 174.55,-105.25 183.12,-116.26 175.03,-124.8 184.55,-135 192.02,-143.01 202.22,-148.71 212.33,-152.75"/>
<polygon fill="black" stroke="black" points="211.1,-156.03 221.7,-156.01 213.4,-149.42 211.1,-156.03"/>
<text xml:space="preserve" text-anchor="middle" x="151.3" y="-107.4" font-family="Times,serif" font-size="8.00">Orchestrates</text>
</g>
<!-- apphost&#45;&gt;basket -->
<g id="edge10" class="edge">
<title>apphost&#45;&gt;basket</title>
<path fill="none" stroke="black" d="M93.98,-20.97C117.01,-12.98 149.09,-6.35 174.55,-18.25 201.58,-30.89 222.29,-58.59 235.03,-79.9"/>
<polygon fill="black" stroke="black" points="231.9,-81.48 239.89,-88.44 237.99,-78.01 231.9,-81.48"/>
<text xml:space="preserve" text-anchor="middle" x="151.3" y="-20.4" font-family="Times,serif" font-size="8.00">Orchestrates</text>
</g>
<!-- postgres -->
<g id="node5" class="node">
<title>postgres</title>
<path fill="none" stroke="black" d="M450.8,-286C450.8,-288.21 435.28,-290 416.17,-290 397.07,-290 381.55,-288.21 381.55,-286 381.55,-286 381.55,-250 381.55,-250 381.55,-247.79 397.07,-246 416.17,-246 435.28,-246 450.8,-247.79 450.8,-250 450.8,-250 450.8,-286 450.8,-286"/>
<path fill="none" stroke="black" d="M450.8,-286C450.8,-283.79 435.28,-282 416.17,-282 397.07,-282 381.55,-283.79 381.55,-286"/>
<text xml:space="preserve" text-anchor="middle" x="416.17" y="-270.5" font-family="Arial" font-size="10.00" fill="white">PostgreSQL</text>
<text xml:space="preserve" text-anchor="middle" x="416.17" y="-258.5" font-family="Arial" font-size="10.00" fill="white">(Database)</text>
</g>
<!-- catalog&#45;&gt;postgres -->
<g id="edge3" class="edge">
<title>catalog&#45;&gt;postgres</title>
<path fill="none" stroke="black" stroke-width="2" d="M277.41,-180.44C299.48,-195.97 332.2,-218.55 361.55,-237 364.3,-238.73 367.14,-240.48 370.03,-242.22"/>
<polygon fill="black" stroke="black" stroke-width="2" points="368.21,-245.21 378.59,-247.32 371.78,-239.2 368.21,-245.21"/>
<text xml:space="preserve" text-anchor="middle" x="339.55" y="-231.19" font-family="Times,serif" font-size="9.00">SQL</text>
</g>
<!-- keycloak -->
<g id="node7" class="node">
<title>keycloak</title>
<path fill="#ffa07a" stroke="black" d="M450.05,-81C450.05,-81 382.3,-81 382.3,-81 376.3,-81 370.3,-75 370.3,-69 370.3,-69 370.3,-57 370.3,-57 370.3,-51 376.3,-45 382.3,-45 382.3,-45 450.05,-45 450.05,-45 456.05,-45 462.05,-51 462.05,-57 462.05,-57 462.05,-69 462.05,-69 462.05,-75 456.05,-81 450.05,-81"/>
<text xml:space="preserve" text-anchor="middle" x="416.17" y="-66.05" font-family="Arial" font-size="11.00">Keycloak</text>
<text xml:space="preserve" text-anchor="middle" x="416.17" y="-52.55" font-family="Arial" font-size="11.00">(Authentication)</text>
</g>
<!-- catalog&#45;&gt;keycloak -->
<g id="edge5" class="edge">
<title>catalog&#45;&gt;keycloak</title>
<path fill="none" stroke="black" stroke-width="1.5" stroke-dasharray="5,2" d="M277.74,-156.91C300.34,-151.19 332.3,-139.72 351.55,-118 360.31,-108.11 352.8,-99.9 361.55,-90 361.73,-89.8 361.91,-89.6 362.09,-89.4"/>
<polygon fill="black" stroke="black" stroke-width="1.5" points="364.32,-92.1 369.52,-82.87 359.7,-86.84 364.32,-92.1"/>
<text xml:space="preserve" text-anchor="middle" x="339.55" y="-138.48" font-family="Times,serif" font-size="9.00">Auth</text>
</g>
<!-- rabbitmq -->
<g id="node8" class="node">
<title>rabbitmq</title>
<path fill="#ff8c00" stroke="black" d="M450.8,-135C450.8,-135 381.55,-135 381.55,-135 375.55,-135 369.55,-129 369.55,-123 369.55,-123 369.55,-111 369.55,-111 369.55,-105 375.55,-99 381.55,-99 381.55,-99 450.8,-99 450.8,-99 456.8,-99 462.8,-105 462.8,-111 462.8,-111 462.8,-123 462.8,-123 462.8,-129 456.8,-135 450.8,-135"/>
<text xml:space="preserve" text-anchor="middle" x="416.17" y="-119.5" font-family="Arial" font-size="10.00">RabbitMQ</text>
<text xml:space="preserve" text-anchor="middle" x="416.17" y="-107.5" font-family="Arial" font-size="10.00">(Message Broker)</text>
</g>
<!-- catalog&#45;&gt;rabbitmq -->
<g id="edge7" class="edge">
<title>catalog&#45;&gt;rabbitmq</title>
<path fill="none" stroke="black" stroke-width="1.5" stroke-dasharray="1,5" d="M277.81,-177.88C298.7,-188.31 328.21,-198.01 351.55,-186 358.35,-182.5 356.64,-177.87 361.55,-172 369.49,-162.51 378.71,-152.67 387.25,-143.99"/>
<polygon fill="black" stroke="black" stroke-width="1.5" points="389.62,-146.57 394.22,-137.03 384.67,-141.62 389.62,-146.57"/>
<text xml:space="preserve" text-anchor="middle" x="339.55" y="-193.49" font-family="Times,serif" font-size="9.00">Events</text>
</g>
<!-- redis -->
<g id="node6" class="node">
<title>redis</title>
<path fill="none" stroke="black" d="M443.17,-224C443.17,-226.21 431.07,-228 416.17,-228 401.28,-228 389.17,-226.21 389.17,-224 389.17,-224 389.17,-188 389.17,-188 389.17,-185.79 401.28,-184 416.17,-184 431.07,-184 443.17,-185.79 443.17,-188 443.17,-188 443.17,-224 443.17,-224"/>
<path fill="none" stroke="black" d="M443.17,-224C443.17,-221.79 431.07,-220 416.17,-220 401.28,-220 389.17,-221.79 389.17,-224"/>
<text xml:space="preserve" text-anchor="middle" x="416.17" y="-208.5" font-family="Arial" font-size="10.00" fill="white">Redis</text>
<text xml:space="preserve" text-anchor="middle" x="416.17" y="-196.5" font-family="Arial" font-size="10.00" fill="white">(Cache)</text>
</g>
<!-- basket&#45;&gt;redis -->
<g id="edge4" class="edge">
<title>basket&#45;&gt;redis</title>
<path fill="none" stroke="black" stroke-width="2" d="M277.81,-114.43C290.86,-118.63 306.23,-125.19 317.55,-135 324.18,-140.74 321.42,-145.74 327.55,-152 341.88,-166.62 360.93,-178.97 377.61,-188.16"/>
<polygon fill="black" stroke="black" stroke-width="2" points="375.53,-191.02 386.01,-192.58 378.8,-184.83 375.53,-191.02"/>
<text xml:space="preserve" text-anchor="middle" x="339.55" y="-173.76" font-family="Times,serif" font-size="9.00">Cache</text>
</g>
<!-- basket&#45;&gt;keycloak -->
<g id="edge6" class="edge">
<title>basket&#45;&gt;keycloak</title>
<path fill="none" stroke="black" stroke-width="1.5" stroke-dasharray="5,2" d="M277.84,-100.77C299.48,-94.82 330.93,-86.17 358.28,-78.65"/>
<polygon fill="black" stroke="black" stroke-width="1.5" points="359.2,-82.02 367.92,-76 357.35,-75.27 359.2,-82.02"/>
<text xml:space="preserve" text-anchor="middle" x="339.55" y="-88.8" font-family="Times,serif" font-size="9.00">Auth</text>
</g>
<!-- basket&#45;&gt;rabbitmq -->
<g id="edge8" class="edge">
<title>basket&#45;&gt;rabbitmq</title>
<path fill="none" stroke="black" stroke-width="1.5" stroke-dasharray="1,5" d="M277.91,-106.73C298.09,-106.04 326.62,-105.65 351.55,-107.5 353.45,-107.64 355.38,-107.81 357.33,-107.99"/>
<polygon fill="black" stroke="black" stroke-width="1.5" points="356.81,-111.45 367.14,-109.08 357.59,-104.5 356.81,-111.45"/>
<text xml:space="preserve" text-anchor="middle" x="339.55" y="-109.45" font-family="Times,serif" font-size="9.00">Events</text>
</g>
<!-- legend1 -->
<g id="node9" class="node">
<title>legend1</title>
<polygon fill="none" stroke="black" points="104.05,-259.82 16,-259.82 16,-216.18 110.05,-216.18 110.05,-253.82 104.05,-259.82"/>
<polyline fill="none" stroke="black" points="104.05,-259.82 104.05,-253.82"/>
<polyline fill="none" stroke="black" points="110.05,-253.82 104.05,-253.82"/>
<text xml:space="preserve" text-anchor="middle" x="63.02" y="-245.03" font-family="Arial" font-size="8.00">━━ Synchronous</text>
<text xml:space="preserve" text-anchor="middle" x="63.02" y="-235.28" font-family="Arial" font-size="8.00">&#45; &#45; &#45; Authentication</text>
<text xml:space="preserve" text-anchor="middle" x="63.02" y="-225.53" font-family="Arial" font-size="8.00">· · · Asynchronous</text>
</g>
</g>
</svg>
