<?xml version="1.0" encoding="UTF-8" standalone="no"?>
<!DOCTYPE svg PUBLIC "-//W3C//DTD SVG 1.1//EN"
 "http://www.w3.org/Graphics/SVG/1.1/DTD/svg11.dtd">
<!-- Generated by graphviz version 14.1.5 (20260411.2331)
 -->
<!-- Title: SnapCartArchitecture Pages: 1 -->
<svg width="975pt" height="761pt"
 viewBox="0.00 0.00 975.00 761.00" xmlns="http://www.w3.org/2000/svg" xmlns:xlink="http://www.w3.org/1999/xlink">
<g id="graph0" class="graph" transform="scale(1 1) rotate(0) translate(36 725.31)">
<title>SnapCartArchitecture</title>
<text xml:space="preserve" text-anchor="start" x="240.79" y="-663.51" font-family="Helvetica,sans-Serif" font-weight="bold" font-size="24.00">SnapCart Distributed — Architecture</text>
<text xml:space="preserve" text-anchor="start" x="289.16" y="-636.91" font-family="Helvetica,sans-Serif" font-size="12.00" fill="#6b7280">.NET Aspire orchestrated microservices e&#45;commerce platform</text>
<text xml:space="preserve" text-anchor="start" x="449.66" y="-623.01" font-family="Helvetica,sans-Serif" font-size="14.00"> </text>
<g id="clust1" class="cluster">
<title>cluster_client</title>
<path fill="none" stroke="#cbd5e1" stroke-dasharray="5,2" d="M224,-470.02C224,-470.02 352,-470.02 352,-470.02 358,-470.02 364,-476.02 364,-482.02 364,-482.02 364,-561.81 364,-561.81 364,-567.81 358,-573.81 352,-573.81 352,-573.81 224,-573.81 224,-573.81 218,-573.81 212,-567.81 212,-561.81 212,-561.81 212,-482.02 212,-482.02 212,-476.02 218,-470.02 224,-470.02"/>
<text xml:space="preserve" text-anchor="start" x="220" y="-559.41" font-family="Helvetica,sans-Serif" font-weight="bold" font-size="12.00" fill="#334155"> &#160;Client Layer &#160;</text>
</g>
<g id="clust2" class="cluster">
<title>cluster_orchestration</title>
<path fill="#faf5ff" stroke="#ddd6fe" d="M412,-474.02C412,-474.02 592,-474.02 592,-474.02 598,-474.02 604,-480.02 604,-486.02 604,-486.02 604,-557.81 604,-557.81 604,-563.81 598,-569.81 592,-569.81 592,-569.81 412,-569.81 412,-569.81 406,-569.81 400,-563.81 400,-557.81 400,-557.81 400,-486.02 400,-486.02 400,-480.02 406,-474.02 412,-474.02"/>
<text xml:space="preserve" text-anchor="start" x="408" y="-555.41" font-family="Helvetica,sans-Serif" font-weight="bold" font-size="12.00" fill="#5b21b6"> &#160;.NET Aspire Orchestration &#160;</text>
</g>
<g id="clust3" class="cluster">
<title>cluster_services</title>
<path fill="#f0fdf4" stroke="#a7f3d0" d="M20,-148.31C20,-148.31 350,-148.31 350,-148.31 356,-148.31 362,-154.31 362,-160.31 362,-160.31 362,-385.02 362,-385.02 362,-391.02 356,-397.02 350,-397.02 350,-397.02 20,-397.02 20,-397.02 14,-397.02 8,-391.02 8,-385.02 8,-385.02 8,-160.31 8,-160.31 8,-154.31 14,-148.31 20,-148.31"/>
<text xml:space="preserve" text-anchor="start" x="16" y="-382.62" font-family="Helvetica,sans-Serif" font-weight="bold" font-size="12.00" fill="#065f46"> &#160;Microservices &#160;</text>
</g>
<g id="clust4" class="cluster">
<title>cluster_data</title>
<path fill="#fff7ed" stroke="#fed7aa" d="M382,-8C382,-8 866,-8 866,-8 872,-8 878,-14 878,-20 878,-20 878,-248.49 878,-248.49 878,-254.49 872,-260.49 866,-260.49 866,-260.49 382,-260.49 382,-260.49 376,-260.49 370,-254.49 370,-248.49 370,-248.49 370,-20 370,-20 370,-14 376,-8 382,-8"/>
<text xml:space="preserve" text-anchor="start" x="378" y="-246.09" font-family="Helvetica,sans-Serif" font-weight="bold" font-size="12.00" fill="#9a3412"> &#160;Backing Services (containers) &#160;</text>
</g>
<g id="clust5" class="cluster">
<title>cluster_legend</title>
<path fill="#f8fafc" stroke="#e2e8f0" d="M671,-433.77C671,-433.77 833,-433.77 833,-433.77 839,-433.77 845,-439.77 845,-445.77 845,-445.77 845,-597.31 845,-597.31 845,-603.31 839,-609.31 833,-609.31 833,-609.31 671,-609.31 671,-609.31 665,-609.31 659,-603.31 659,-597.31 659,-597.31 659,-445.77 659,-445.77 659,-439.77 665,-433.77 671,-433.77"/>
<text xml:space="preserve" text-anchor="start" x="667" y="-595.86" font-family="Helvetica,sans-Serif" font-weight="bold" font-size="11.00" fill="#334155"> &#160;Legend &#160;</text>
</g>
<!-- webapp -->
<g id="node1" class="node">
<title>webapp</title>
<path fill="#f1f5f9" stroke="#cbd5e1" stroke-width="1.4" stroke-dasharray="5,2" d="M335.6,-537.06C335.6,-537.06 240.41,-537.06 240.41,-537.06 234.41,-537.06 228.41,-531.06 228.41,-525.06 228.41,-525.06 228.41,-498.02 228.41,-498.02 228.41,-492.02 234.41,-486.02 240.41,-486.02 240.41,-486.02 335.6,-486.02 335.6,-486.02 341.6,-486.02 347.6,-492.02 347.6,-498.02 347.6,-498.02 347.6,-525.06 347.6,-525.06 347.6,-531.06 341.6,-537.06 335.6,-537.06"/>
<text xml:space="preserve" text-anchor="start" x="247.12" y="-516.09" font-family="Helvetica,sans-Serif" font-weight="bold" font-size="11.00" fill="#94a3b8">Blazor WebApp</text>
<text xml:space="preserve" text-anchor="start" x="253.12" y="-506.99" font-family="Helvetica,sans-Serif" font-size="9.00" fill="#94a3b8">WebAssembly UI</text>
<text xml:space="preserve" text-anchor="start" x="273.75" y="-498.94" font-family="Helvetica,sans-Serif" font-style="italic" font-size="8.00" fill="#94a3b8">planned</text>
</g>
<!-- catalog -->
<g id="node3" class="node">
<title>catalog</title>
<path fill="#d1fae5" stroke="#10b981" stroke-width="1.8" d="M177.84,-360.27C177.84,-360.27 36.16,-360.27 36.16,-360.27 30.15,-360.27 24.16,-354.27 24.16,-348.27 24.16,-348.27 24.16,-321.24 24.16,-321.24 24.16,-315.24 30.16,-309.24 36.16,-309.24 36.16,-309.24 177.84,-309.24 177.84,-309.24 183.84,-309.24 189.84,-315.24 189.84,-321.24 189.84,-321.24 189.84,-348.27 189.84,-348.27 189.84,-354.27 183.84,-360.27 177.84,-360.27"/>
<text xml:space="preserve" text-anchor="start" x="65.75" y="-339.31" font-family="Helvetica,sans-Serif" font-weight="bold" font-size="11.00" fill="#065f46">Catalog Service</text>
<text xml:space="preserve" text-anchor="start" x="56.38" y="-330.2" font-family="Helvetica,sans-Serif" font-size="9.00" fill="#065f46">FastEndpoints REST API</text>
<text xml:space="preserve" text-anchor="start" x="42.88" y="-322.15" font-family="Helvetica,sans-Serif" font-size="8.00" fill="#047857">GET/POST/PUT/DELETE /products</text>
</g>
<!-- webapp&#45;&gt;catalog -->
<g id="edge1" class="edge">
<title>webapp&#45;&gt;catalog</title>
<path fill="none" stroke="#cbd5e1" stroke-width="1.4" stroke-dasharray="5,2" d="M262.07,-485.5C230.04,-454.57 175.49,-401.89 140.36,-367.97"/>
<polygon fill="#cbd5e1" stroke="#cbd5e1" stroke-width="1.4" points="142.4,-366.05 134.7,-362.51 138.51,-370.08 142.4,-366.05"/>
<text xml:space="preserve" text-anchor="middle" x="213.66" y="-406.22" font-family="Helvetica,sans-Serif" font-size="9.00" fill="#94a3b8">HTTP / REST</text>
</g>
<!-- basket -->
<g id="node4" class="node">
<title>basket</title>
<path fill="#f1f5f9" stroke="#cbd5e1" stroke-width="1.4" stroke-dasharray="5,2" d="M333.72,-360.27C333.72,-360.27 242.28,-360.27 242.28,-360.27 236.28,-360.27 230.28,-354.27 230.28,-348.27 230.28,-348.27 230.28,-321.24 230.28,-321.24 230.28,-315.24 236.28,-309.24 242.28,-309.24 242.28,-309.24 333.72,-309.24 333.72,-309.24 339.72,-309.24 345.72,-315.24 345.72,-321.24 345.72,-321.24 345.72,-348.27 345.72,-348.27 345.72,-354.27 339.72,-360.27 333.72,-360.27"/>
<text xml:space="preserve" text-anchor="start" x="249" y="-339.31" font-family="Helvetica,sans-Serif" font-weight="bold" font-size="11.00" fill="#94a3b8">Basket Service</text>
<text xml:space="preserve" text-anchor="start" x="260.25" y="-330.2" font-family="Helvetica,sans-Serif" font-size="9.00" fill="#94a3b8">shopping cart</text>
<text xml:space="preserve" text-anchor="start" x="273.75" y="-322.15" font-family="Helvetica,sans-Serif" font-style="italic" font-size="8.00" fill="#94a3b8">planned</text>
</g>
<!-- webapp&#45;&gt;basket -->
<g id="edge8" class="edge">
<title>webapp&#45;&gt;basket</title>
<path fill="none" stroke="#cbd5e1" stroke-width="1.4" stroke-dasharray="5,2" d="M288,-485.5C288,-455.39 288,-404.67 288,-370.71"/>
<polygon fill="#cbd5e1" stroke="#cbd5e1" stroke-width="1.4" points="290.8,-370.87 288,-362.87 285.2,-370.87 290.8,-370.87"/>
</g>
<!-- keycloak -->
<g id="node10" class="node">
<title>keycloak</title>
<path fill="#f1f5f9" stroke="#cbd5e1" stroke-width="1.4" stroke-dasharray="5,2" d="M849.72,-214.35C849.72,-214.35 788.28,-214.35 788.28,-214.35 782.28,-214.35 776.28,-208.35 776.28,-202.35 776.28,-202.35 776.28,-176.31 776.28,-176.31 776.28,-170.31 782.28,-164.31 788.28,-164.31 788.28,-164.31 849.72,-164.31 849.72,-164.31 855.72,-164.31 861.72,-170.31 861.72,-176.31 861.72,-176.31 861.72,-202.35 861.72,-202.35 861.72,-208.35 855.72,-214.35 849.72,-214.35"/>
<text xml:space="preserve" text-anchor="start" x="795" y="-193.38" font-family="Helvetica,sans-Serif" font-weight="bold" font-size="11.00" fill="#94a3b8">Keycloak</text>
<text xml:space="preserve" text-anchor="start" x="799.88" y="-185.23" font-family="Helvetica,sans-Serif" font-size="8.00" fill="#94a3b8">OIDC auth</text>
<text xml:space="preserve" text-anchor="start" x="804.75" y="-177.23" font-family="Helvetica,sans-Serif" font-style="italic" font-size="8.00" fill="#94a3b8">planned</text>
</g>
<!-- webapp&#45;&gt;keycloak -->
<g id="edge13" class="edge">
<title>webapp&#45;&gt;keycloak</title>
<path fill="none" stroke="#cbd5e1" stroke-width="1.4" stroke-dasharray="5,2" d="M304.82,-485.33C341.19,-433.33 432.9,-315.13 544,-268.49 587.67,-250.15 714.19,-280.76 757,-260.49 774.07,-252.4 788.42,-237.2 799,-223.01"/>
<polygon fill="#cbd5e1" stroke="#cbd5e1" stroke-width="1.4" points="801.22,-224.72 803.56,-216.57 796.65,-221.48 801.22,-224.72"/>
<text xml:space="preserve" text-anchor="middle" x="481.8" y="-331.08" font-family="Helvetica,sans-Serif" font-size="9.00" fill="#94a3b8">OIDC</text>
</g>
<!-- apphost -->
<g id="node2" class="node">
<title>apphost</title>
<path fill="#ede9fe" stroke="#8b5cf6" stroke-width="1.4" d="M576.22,-533.06C576.22,-533.06 427.78,-533.06 427.78,-533.06 421.78,-533.06 415.78,-527.06 415.78,-521.06 415.78,-521.06 415.78,-502.02 415.78,-502.02 415.78,-496.02 421.78,-490.02 427.78,-490.02 427.78,-490.02 576.22,-490.02 576.22,-490.02 582.22,-490.02 588.22,-496.02 588.22,-502.02 588.22,-502.02 588.22,-521.06 588.22,-521.06 588.22,-527.06 582.22,-533.06 576.22,-533.06"/>
<text xml:space="preserve" text-anchor="start" x="478.75" y="-512.1" font-family="Helvetica,sans-Serif" font-weight="bold" font-size="11.00" fill="#4c1d95">AppHost</text>
<text xml:space="preserve" text-anchor="start" x="434.5" y="-502.99" font-family="Helvetica,sans-Serif" font-size="9.00" fill="#4c1d95">Aspire app model · service wiring</text>
</g>
<!-- apphost&#45;&gt;catalog -->
<g id="edge5" class="edge">
<title>apphost&#45;&gt;catalog</title>
<path fill="none" stroke="#8b5cf6" stroke-width="1.4" stroke-dasharray="1,5" d="M472.87,-489.47C447.78,-472.22 410.02,-448.37 374,-433.77 321.97,-412.69 305.89,-416.79 251,-405.02 232.85,-401.13 227.35,-403.65 210,-397.02 189.62,-389.25 168.66,-377.56 151.01,-366.48"/>
<polygon fill="#8b5cf6" stroke="#8b5cf6" stroke-width="1.4" points="152.66,-364.21 144.41,-362.25 149.63,-368.92 152.66,-364.21"/>
<text xml:space="preserve" text-anchor="middle" x="340.41" y="-406.22" font-family="Helvetica,sans-Serif" font-size="9.00" fill="#7c3aed">provisions &amp; runs</text>
</g>
<!-- apphost&#45;&gt;basket -->
<g id="edge10" class="edge">
<title>apphost&#45;&gt;basket</title>
<path fill="none" stroke="#cbd5e1" stroke-width="1.4" stroke-dasharray="1,5" d="M540.02,-489.39C574.67,-467.54 616.67,-432.82 590,-405.02 575.14,-389.54 417.65,-402.89 397,-397.02 373.82,-390.44 350.25,-378.05 330.98,-366.12"/>
<polygon fill="#cbd5e1" stroke="#cbd5e1" stroke-width="1.4" points="332.49,-363.76 324.24,-361.83 329.49,-368.49 332.49,-363.76"/>
</g>
<!-- postgres -->
<g id="node6" class="node">
<title>postgres</title>
<path fill="#dbeafe" stroke="#3b82f6" stroke-width="1.8" d="M520.47,-77.8C520.47,-80.77 490.23,-83.18 453,-83.18 415.77,-83.18 385.53,-80.77 385.53,-77.8 385.53,-77.8 385.53,-29.38 385.53,-29.38 385.53,-26.41 415.77,-24 453,-24 490.23,-24 520.47,-26.41 520.47,-29.38 520.47,-29.38 520.47,-77.8 520.47,-77.8"/>
<path fill="none" stroke="#3b82f6" stroke-width="1.8" d="M520.47,-77.8C520.47,-74.83 490.23,-72.42 453,-72.42 415.77,-72.42 385.53,-74.83 385.53,-77.8"/>
<text xml:space="preserve" text-anchor="start" x="421.12" y="-54.14" font-family="Helvetica,sans-Serif" font-weight="bold" font-size="11.00" fill="#1e40af">PostgreSQL</text>
<text xml:space="preserve" text-anchor="start" x="404.25" y="-45.04" font-family="Helvetica,sans-Serif" font-size="9.00" fill="#1e40af">catalogdb · data volume</text>
</g>
<!-- apphost&#45;&gt;postgres -->
<g id="edge6" class="edge">
<title>apphost&#45;&gt;postgres</title>
<path fill="none" stroke="#8b5cf6" stroke-width="1.4" stroke-dasharray="1,5" d="M538.28,-489.36C629.54,-435.71 862.75,-296.2 882,-260.49 905.66,-216.6 913.26,-187.15 882,-148.31 838.78,-94.63 642.64,-70.03 531.13,-60.21"/>
<polygon fill="#8b5cf6" stroke="#8b5cf6" stroke-width="1.4" points="531.59,-57.43 523.38,-59.54 531.11,-63.01 531.59,-57.43"/>
</g>
<!-- pgadmin -->
<g id="node7" class="node">
<title>pgadmin</title>
<path fill="#eff6ff" stroke="#60a5fa" stroke-width="1.4" d="M482.35,-210.35C482.35,-210.35 397.65,-210.35 397.65,-210.35 391.65,-210.35 385.65,-204.35 385.65,-198.35 385.65,-198.35 385.65,-180.31 385.65,-180.31 385.65,-174.31 391.65,-168.31 397.65,-168.31 397.65,-168.31 482.35,-168.31 482.35,-168.31 488.35,-168.31 494.35,-174.31 494.35,-180.31 494.35,-180.31 494.35,-198.35 494.35,-198.35 494.35,-204.35 488.35,-210.35 482.35,-210.35"/>
<text xml:space="preserve" text-anchor="start" x="416" y="-189.38" font-family="Helvetica,sans-Serif" font-weight="bold" font-size="11.00" fill="#1d4ed8">pgAdmin</text>
<text xml:space="preserve" text-anchor="start" x="404.38" y="-181.23" font-family="Helvetica,sans-Serif" font-size="8.00" fill="#1d4ed8">DB management UI</text>
</g>
<!-- apphost&#45;&gt;pgadmin -->
<g id="edge7" class="edge">
<title>apphost&#45;&gt;pgadmin</title>
<path fill="none" stroke="#8b5cf6" stroke-width="1.4" stroke-dasharray="1,5" d="M540.6,-489.39C570.03,-473.51 611.7,-451.54 649,-433.77 670.09,-423.73 703.07,-426.1 693,-405.02 648.91,-312.76 590.94,-327.83 514,-260.49 498.49,-246.91 481.78,-231.17 468.17,-218.04"/>
<polygon fill="#8b5cf6" stroke="#8b5cf6" stroke-width="1.4" points="470.17,-216.08 462.48,-212.53 466.27,-220.1 470.17,-216.08"/>
</g>
<!-- servicedefaults -->
<g id="node5" class="node">
<title>servicedefaults</title>
<polygon fill="#ecfdf5" stroke="#34d399" stroke-width="1.4" points="345.85,-214.35 198.16,-214.35 198.16,-210.35 194.16,-210.35 194.16,-206.35 198.16,-206.35 198.16,-172.31 194.16,-172.31 194.16,-168.31 198.16,-168.31 198.16,-164.31 345.85,-164.31 345.85,-214.35"/>
<polyline fill="none" stroke="#34d399" stroke-width="1.4" points="198.16,-210.35 202.16,-210.35 202.16,-206.35 198.16,-206.35"/>
<polyline fill="none" stroke="#34d399" stroke-width="1.4" points="198.16,-172.31 202.16,-172.31 202.16,-168.31 198.16,-168.31"/>
<text xml:space="preserve" text-anchor="start" x="230.75" y="-193.38" font-family="Helvetica,sans-Serif" font-weight="bold" font-size="11.00" fill="#047857">ServiceDefaults</text>
<text xml:space="preserve" text-anchor="start" x="216.88" y="-185.23" font-family="Helvetica,sans-Serif" font-size="8.00" fill="#047857">OpenTelemetry · Health checks</text>
<text xml:space="preserve" text-anchor="start" x="219.88" y="-177.23" font-family="Helvetica,sans-Serif" font-size="8.00" fill="#047857">Service discovery · Resilience</text>
</g>
<!-- catalog&#45;&gt;servicedefaults -->
<g id="edge4" class="edge">
<title>catalog&#45;&gt;servicedefaults</title>
<path fill="none" stroke="#34d399" stroke-width="1.4" stroke-dasharray="1,5" d="M133.46,-308.6C146.55,-296.33 162.69,-281.45 177.5,-268.49 198.49,-250.12 222.74,-230.08 241.42,-214.9"/>
<text xml:space="preserve" text-anchor="middle" x="187.25" y="-269.69" font-family="Helvetica,sans-Serif" font-size="9.00" fill="#059669">uses</text>
</g>
<!-- catalog&#45;&gt;postgres -->
<g id="edge2" class="edge">
<title>catalog&#45;&gt;postgres</title>
<path fill="none" stroke="#10b981" stroke-width="1.8" d="M98.48,-308.51C87.11,-269.7 72.31,-195 108.25,-148.31 140.5,-106.41 282.72,-78.75 374.11,-64.95"/>
<polygon fill="#10b981" stroke="#10b981" stroke-width="1.8" points="374.52,-67.72 382.03,-63.77 373.7,-62.18 374.52,-67.72"/>
<text xml:space="preserve" text-anchor="middle" x="143.12" y="-185.66" font-family="Helvetica,sans-Serif" font-size="9.00" fill="#047857">EF Core / Npgsql</text>
</g>
<!-- rabbitmq -->
<g id="node9" class="node">
<title>rabbitmq</title>
<path fill="#f1f5f9" stroke="#cbd5e1" stroke-width="1.4" stroke-dasharray="5,2" d="M617.6,-214.35C617.6,-214.35 546.4,-214.35 546.4,-214.35 540.4,-214.35 534.4,-208.35 534.4,-202.35 534.4,-202.35 534.4,-176.31 534.4,-176.31 534.4,-170.31 540.4,-164.31 546.4,-164.31 546.4,-164.31 617.6,-164.31 617.6,-164.31 623.6,-164.31 629.6,-170.31 629.6,-176.31 629.6,-176.31 629.6,-202.35 629.6,-202.35 629.6,-208.35 623.6,-214.35 617.6,-214.35"/>
<text xml:space="preserve" text-anchor="start" x="556.12" y="-193.38" font-family="Helvetica,sans-Serif" font-weight="bold" font-size="11.00" fill="#94a3b8">RabbitMQ</text>
<text xml:space="preserve" text-anchor="start" x="553.12" y="-185.23" font-family="Helvetica,sans-Serif" font-size="8.00" fill="#94a3b8">message broker</text>
<text xml:space="preserve" text-anchor="start" x="567.75" y="-177.23" font-family="Helvetica,sans-Serif" font-style="italic" font-size="8.00" fill="#94a3b8">planned</text>
</g>
<!-- catalog&#45;&gt;rabbitmq -->
<g id="edge11" class="edge">
<title>catalog&#45;&gt;rabbitmq</title>
<path fill="none" stroke="#cbd5e1" stroke-width="1.4" stroke-dasharray="5,2" d="M167.08,-308.42C204.58,-293.88 254.25,-276.89 300,-268.49 323.4,-264.18 492.27,-270.17 514,-260.49 532.17,-252.39 547.96,-236.99 559.75,-222.67"/>
<polygon fill="#cbd5e1" stroke="#cbd5e1" stroke-width="1.4" points="561.81,-224.57 564.56,-216.55 557.41,-221.11 561.81,-224.57"/>
<text xml:space="preserve" text-anchor="middle" x="313.5" y="-269.69" font-family="Helvetica,sans-Serif" font-size="9.00" fill="#94a3b8">events</text>
</g>
<!-- redis -->
<g id="node8" class="node">
<title>redis</title>
<path fill="#f1f5f9" stroke="#cbd5e1" stroke-width="1.4" stroke-dasharray="5,2" d="M736.72,-217.48C736.72,-220.93 721.61,-223.74 703,-223.74 684.39,-223.74 669.28,-220.93 669.28,-217.48 669.28,-217.48 669.28,-161.19 669.28,-161.19 669.28,-157.73 684.39,-154.93 703,-154.93 721.61,-154.93 736.72,-157.73 736.72,-161.19 736.72,-161.19 736.72,-217.48 736.72,-217.48"/>
<path fill="none" stroke="#cbd5e1" stroke-width="1.4" stroke-dasharray="5,2" d="M736.72,-217.48C736.72,-214.03 721.61,-211.23 703,-211.23 684.39,-211.23 669.28,-214.03 669.28,-217.48"/>
<text xml:space="preserve" text-anchor="start" x="688" y="-193.38" font-family="Helvetica,sans-Serif" font-weight="bold" font-size="11.00" fill="#94a3b8">Redis</text>
<text xml:space="preserve" text-anchor="start" x="692.5" y="-185.23" font-family="Helvetica,sans-Serif" font-size="8.00" fill="#94a3b8">cache</text>
<text xml:space="preserve" text-anchor="start" x="688.75" y="-177.23" font-family="Helvetica,sans-Serif" font-style="italic" font-size="8.00" fill="#94a3b8">planned</text>
</g>
<!-- basket&#45;&gt;redis -->
<g id="edge9" class="edge">
<title>basket&#45;&gt;redis</title>
<path fill="none" stroke="#cbd5e1" stroke-width="1.4" stroke-dasharray="5,2" d="M326.28,-308.61C350.83,-293.95 384,-276.75 416,-268.49 441.19,-261.98 626.91,-272.47 650,-260.49 662.32,-254.09 672.57,-243.38 680.67,-232.24"/>
<polygon fill="#cbd5e1" stroke="#cbd5e1" stroke-width="1.4" points="682.83,-234.05 685,-225.86 678.2,-230.91 682.83,-234.05"/>
</g>
<!-- basket&#45;&gt;rabbitmq -->
<g id="edge12" class="edge">
<title>basket&#45;&gt;rabbitmq</title>
<path fill="none" stroke="#cbd5e1" stroke-width="1.4" stroke-dasharray="5,2" d="M305.05,-308.69C316.47,-294.16 332.89,-277.07 352,-268.49 384.88,-253.71 481.17,-275.35 514,-260.49 532.12,-252.28 547.91,-236.87 559.7,-222.58"/>
<polygon fill="#cbd5e1" stroke="#cbd5e1" stroke-width="1.4" points="561.76,-224.48 564.52,-216.47 557.37,-221.02 561.76,-224.48"/>
</g>
<!-- pgadmin&#45;&gt;postgres -->
<g id="edge3" class="edge">
<title>pgadmin&#45;&gt;postgres</title>
<path fill="none" stroke="#60a5fa" stroke-width="1.4" stroke-dasharray="5,2" d="M442,-167.73C443.91,-148.11 446.83,-118.07 449.18,-93.87"/>
<polygon fill="#60a5fa" stroke="#60a5fa" stroke-width="1.4" points="451.96,-94.25 449.95,-86.02 446.38,-93.71 451.96,-94.25"/>
<text xml:space="preserve" text-anchor="middle" x="466.01" y="-115.38" font-family="Helvetica,sans-Serif" font-size="9.00" fill="#3b82f6">manages</text>
</g>
<!-- legend -->
<g id="node11" class="node">
<title>legend</title>
<text xml:space="preserve" text-anchor="start" x="695.88" y="-550.34" font-family="Helvetica,sans-Serif" font-weight="bold" font-size="11.00" fill="#10b981">■</text>
<text xml:space="preserve" text-anchor="start" x="726.38" y="-550.04" font-family="Helvetica,sans-Serif" font-size="9.00" fill="#334155">Implemented</text>
<text xml:space="preserve" text-anchor="start" x="695.88" y="-528.09" font-family="Helvetica,sans-Serif" font-weight="bold" font-size="11.00" fill="#cbd5e1">□</text>
<text xml:space="preserve" text-anchor="start" x="726.38" y="-527.79" font-family="Helvetica,sans-Serif" font-size="9.00" fill="#64748b">Planned (roadmap)</text>
<text xml:space="preserve" text-anchor="start" x="695.88" y="-505.84" font-family="Helvetica,sans-Serif" font-weight="bold" font-size="11.00" fill="#10b981">——</text>
<text xml:space="preserve" text-anchor="start" x="726.38" y="-506.67" font-family="Helvetica,sans-Serif" font-size="9.00" fill="#334155">Synchronous call</text>
<text xml:space="preserve" text-anchor="start" x="695.88" y="-485.84" font-family="Helvetica,sans-Serif" font-weight="bold" font-size="11.00" fill="#8b5cf6">···</text>
<text xml:space="preserve" text-anchor="start" x="726.38" y="-486.67" font-family="Helvetica,sans-Serif" font-size="9.00" fill="#334155">Aspire orchestration</text>
<text xml:space="preserve" text-anchor="start" x="695.88" y="-465.84" font-family="Helvetica,sans-Serif" font-weight="bold" font-size="11.00" fill="#94a3b8">&#45; &#45;</text>
<text xml:space="preserve" text-anchor="start" x="726.38" y="-466.67" font-family="Helvetica,sans-Serif" font-size="9.00" fill="#334155">Planned / async</text>
</g>
</g>
</svg>
